<svg xmlns="http://www.w3.org/2000/svg" viewBox="0 0 33 33"><defs><style>.a,.b{fill:#044247;}.b{fill-rule:evenodd;}</style></defs><path class="a" d="M12,5.35l-.89-3.14A.54.54,0,0,0,11,2a.75.75,0,0,0-.17-.14.59.59,0,0,0-.22-.05.54.54,0,0,0-.22.05A16.52,16.52,0,0,0,.66,19.31a.49.49,0,0,0,.08.21.46.46,0,0,0,.15.16.6.6,0,0,0,.21.08.53.53,0,0,0,.22,0l3.14-.9a.74.74,0,0,0,.37-.28A.77.77,0,0,0,5,18.09,12.12,12.12,0,0,1,11.61,6.14.71.71,0,0,0,12,5.35Z" transform="translate(-0.5 -0.5)"/><path class="a" d="M28.63,12l3.13-.89A.47.47,0,0,0,32,11a.55.55,0,0,0,.14-.17.54.54,0,0,0,0-.22.59.59,0,0,0,0-.22A16.5,16.5,0,0,0,14.69.66a.48.48,0,0,0-.2.07.49.49,0,0,0-.16.16.54.54,0,0,0-.08.21.55.55,0,0,0,0,.22l.89,3.14a.7.7,0,0,0,.29.37.76.76,0,0,0,.46.12,12.08,12.08,0,0,1,11.94,6.67.74.74,0,0,0,.33.3A.77.77,0,0,0,28.63,12Z" transform="translate(-0.5 -0.5)"/><path class="a" d="M22.91,31.77,22,28.64a.74.74,0,0,1,.36-.8A12.1,12.1,0,0,0,29,15.89a.69.69,0,0,1,.11-.46.73.73,0,0,1,.38-.29l3.15-.89a.42.42,0,0,1,.22,0,.58.58,0,0,1,.21.07.57.57,0,0,1,.15.16.54.54,0,0,1,.08.21,16.52,16.52,0,0,1-9.72,17.44.54.54,0,0,1-.22,0,.5.5,0,0,1-.21,0A.49.49,0,0,1,23,32,.47.47,0,0,1,22.91,31.77Z" transform="translate(-0.5 -0.5)"/><path class="a" d="M5.36,22l-3.13.89A.63.63,0,0,0,2,23a.49.49,0,0,0-.14.18.54.54,0,0,0,0,.21.54.54,0,0,0,0,.22,16.5,16.5,0,0,0,17.42,9.73.49.49,0,0,0,.21-.08.46.46,0,0,0,.16-.15.54.54,0,0,0,.08-.21.55.55,0,0,0,0-.22l-.89-3.14a.73.73,0,0,0-.29-.38.69.69,0,0,0-.46-.11A12.08,12.08,0,0,1,6.16,22.38a.81.81,0,0,0-.34-.32A.8.8,0,0,0,5.36,22Z" transform="translate(-0.5 -0.5)"/><path class="b" d="M9.32,12.7a8.8,8.8,0,1,1-.78,6.69A8.78,8.78,0,0,1,9.32,12.7Zm5.53,8.13a4.4,4.4,0,0,0,3.35.39h0a4.36,4.36,0,0,0,2.64-2.09,4.42,4.42,0,0,0,.38-3.34,4.39,4.39,0,1,0-8.45,2.4A4.43,4.43,0,0,0,14.85,20.83Z" transform="translate(-0.5 -0.5)"/></svg>